<svg height="512" viewBox="0 0 60 60" width="512" xmlns="http://www.w3.org/2000/svg"><g id="Page-1" fill="none" fill-rule="evenodd"><g id="001---Vet" fill="rgb(0,0,0)" fill-rule="nonzero"><path id="Shape" d="m0 32c.00606096 4.9680501 4.03194995 8.993939 9 9h10v10c.006061 4.9680501 4.0319499 8.993939 9 9h4c4.9680501-.006061 8.993939-4.0319499 9-9v-5.889c.3276248-.077264.6634064-.1145358 1-.111.8963506-.0180438 1.7711606.2756802 2.475.831 1.0434155.7778114 2.314726 1.1888076 3.616 1.169 1.9538375.0768059 3.7427066-1.0899699 4.46-2.909.9683975-2.7248983.2756445-5.7639723-1.778-7.8-.8260751-.8757968-1.5414327-1.8497579-2.13-2.9-1.322-2.159-2.688-4.391-6.643-4.391s-5.321 2.232-6.643 4.39c-.5885673 1.0502421-1.3039249 2.0242032-2.13 2.9-2.0536445 2.0360277-2.7463975 5.0751017-1.778 7.8.716965 1.819424 2.5059101 2.9866506 4.46 2.91 1.0896455.0261993 2.1634542-.2645732 3.091-.837v4.837c-.0044086 3.8641657-3.1358343 6.9955914-7 7h-4c-3.8641657-.0044086-6.9955914-3.1358343-7-7v-10c0-1.1045695-.8954305-2-2-2h-10c-3.86416566-.0044086-6.99559136-3.1358343-7-7v-4c.00440864-3.8641657 3.13583434-6.9955914 7-7h10c1.1045695 0 2-.8954305 2-2v-10c.0044086-3.86416566 3.1358343-6.99559136 7-7h4c3.8641657.00440864 6.9955914 3.13583434 7 7v7.656c-.9773749-1.1507241-2.4592595-1.745573-3.961-1.59-1.4498133.2480699-2.6868813 1.1890332-3.313 2.52-.715182 1.429266-.9641963 3.04681-.712 4.625.2025406 1.5855874.8971162 3.0677683 1.986 4.238.8500002.9409233 2.0484392 1.4924365 3.316 1.526.1913916-.0002533.3825289-.0139537.572-.041 1.4498133-.2480699 2.6868813-1.1890332 3.313-2.52.539163-1.0563983.8133731-2.2280541.799-3.414v-13c-.006061-4.96805005-4.0319499-8.99393904-9-9h-4c-4.9680501.00606096-8.993939 4.03194995-9 9v10h-10c-4.96805005.006061-8.99393904 4.0319499-9 9zm35.909 13c-1.1418762.0760481-2.1999296-.6012034-2.609-1.67-.6414758-1.9759124-.1255365-4.1446329 1.337-5.62.9417085-.9870122 1.7572756-2.0870872 2.428-3.275 1.264-2.069 2.101-3.435 4.935-3.435s3.671 1.366 4.937 3.435c.6707244 1.1879128 1.4862915 2.2879878 2.428 3.275 1.4618303 1.4757927 1.9769847 3.6444577 1.335 5.62-.4090704 1.0687966-1.4671238 1.7460481-2.609 1.67-.9118534.0207057-1.802478-.2766406-2.519-.841-2.1306385-1.5452999-5.0133615-1.5452999-7.144 0-.716522.5643594-1.6071466.8617057-2.519.841zm2.523-20.52c-.2931611.7900845-.9949377 1.3565778-1.8290832 1.4764862-.8341456.1199084-1.6670757-.2259708-2.1709168-.9014862-.7945755-.8669046-1.2980845-1.9606381-1.44-3.128-.1936611-1.1600107-.0187952-2.351547.5-3.407.3347633-.7583045 1.0159658-1.3075892 1.828-1.474 1.614-.229 3.263 1.613 3.61 4.027.0434343.3014098.0658219.605479.067.91v.017c.0162073.8603191-.177734 1.7116012-.565 2.48z"/><path id="Shape" d="m26.034 25.67c-1.985.962-2.621 3.763-1.419 6.245.7552215 1.7575051 2.4287981 2.9460261 4.337 3.08.4999455.0023028.9938213-.1095375 1.444-.327 1.985-.962 2.621-3.764 1.418-6.244s-3.795-3.716-5.78-2.754zm3.49 7.2c-.978.474-2.4-.364-3.109-1.827s-.484-3.1.491-3.572c.187115-.0898724.3924346-.1353849.6-.133 1.1286062.1546965 2.0875097.9028856 2.512 1.96.706 1.462.482 3.102-.494 3.571z"/><path id="Shape" d="m47.112 27.934c.1894711.0270463.3806084.0407467.572.041 1.2674523-.0340293 2.4657166-.5854622 3.316-1.526 1.0888838-1.1702317 1.7834594-2.6524126 1.986-4.238.2521963-1.57819.003182-3.195734-.712-4.625-.6261187-1.3309668-1.8631867-2.2719301-3.313-2.52-2.725-.392-5.364 2.175-5.874 5.723-.251177 1.5781927-.0022107 3.1954248.712 4.625.6261187 1.3309668 1.8631867 2.2719301 3.313 2.52zm-2.045-6.861c.328-2.277 1.816-4.047 3.335-4.047.0920229.0001928.1839176.006876.275.02.8120342.1664108 1.4932367.7156955 1.828 1.474.5187952 1.055453.6936611 2.2469893.5 3.407-.1419155 1.1673619-.6454245 2.2610954-1.44 3.128-.5038411.6755154-1.3367712 1.0213946-2.1709168.9014862-.8341455-.1199084-1.5359221-.6864017-1.8290832-1.4764862-.5176597-1.0558125-.6918034-2.2471931-.498-3.407z"/><path id="Shape" d="m53.6 34.668c.4501787.2174625.9440545.3293028 1.444.327 1.9083536-.13438 3.5818838-1.323254 4.337-3.081 1.2-2.481.566-5.282-1.419-6.244s-4.577.274-5.78 2.754-.563 5.282 1.418 6.244zm2.9-7.331c.2075654-.0023849.412885.0431276.6.133.975.472 1.2 2.109.491 3.572s-2.134 2.3-3.108 1.827-1.2-2.109-.491-3.572c.4237954-1.055989 1.3808944-1.8039611 2.508-1.96z"/><path id="Shape" d="m6 28c0-1.6568542 1.34314575-3 3-3 .55228475 0 1-.4477153 1-1s-.44771525-1-1-1c-2.76005315.0033061-4.99669388 2.2399468-5 5 .00000001.5522847.44771526 1 1 1s.99999999-.4477153 1-1z"/><path id="Shape" d="m14 25c.5522847 0 1-.4477153 1-1s-.4477153-1-1-1h-1c-.5522847 0-1 .4477153-1 1s.4477153 1 1 1z"/></g></g></svg>